<svg width="1em" height="1em" viewBox="0 0 10 10" xmlns="http://www.w3.org/2000/svg" class="larkui-icon larkui-icon-move-top icon-svg index-module_size_wVASz" data-name="MoveTop" style="width: 9px; min-width: 9px; height: 13px;"><g transform="translate(-5 -5)" fill="none" fill-rule="evenodd"><rect width="20" height="20" rx="2"></rect><path d="M14.28 6.94a.72.72 0 0 0 0-1.44H5.72a.72.72 0 0 0 0 1.44h8.56Zm-8.788 7.42a.723.723 0 0 0 .939-.07L10 10.731l3.572 3.559.081.069c.304.22.726.171.971-.112a.717.717 0 0 0-.033-.974L10.002 8.7 5.41 13.274l-.07.08a.718.718 0 0 0 .071.937Z" fill="currentColor"></path></g></svg>