<?xml version="1.0" encoding="UTF-8"?>
<svg width="26px" height="26px" viewBox="0 0 26 26" version="1.1" xmlns="http://www.w3.org/2000/svg" xmlns:xlink="http://www.w3.org/1999/xlink">
    <title>编组 44</title>
    <g id="视觉稿" stroke="none" stroke-width="1" fill="none" fill-rule="evenodd">
        <g id="编组-44">
            <circle id="椭圆形" fill="#1672F3" cx="13" cy="13" r="13"></circle>
            <g id="公共空间" transform="translate(5.500000, 5.000000)" fill="#FFFFFF">
                <g id="star-outlined" fill-rule="nonzero" opacity="0">
                    <rect id="矩形" x="0" y="0" width="16" height="16"></rect>
                </g>
                <g id="编组-17" transform="translate(0.891637, 1.500000)">
                    <path d="M3,0 C3.55228475,-1.01453063e-16 4,0.44771525 4,1 L4,12 C4,12.5522847 3.55228475,13 3,13 L1,13 C0.44771525,13 6.76353751e-17,12.5522847 0,12 L0,1 C-6.76353751e-17,0.44771525 0.44771525,1.01453063e-16 1,0 L3,0 Z M3.35234237,9.60768379 L0.539457493,9.60768379 L0.539457493,10.6076838 L3.35234237,10.6076838 L3.35234237,9.60768379 Z" id="形状结合"></path>
                    <rect id="矩形备份-49" x="4.526761" y="0" width="4" height="13" rx="1"></rect>
                    <path d="M11.3317242,13 L13.0333358,13 C13.5856205,13 14.0333358,12.5522847 14.0333358,12 C14.0333358,11.9441028 14.028649,11.8883039 14.0193248,11.8331898 L12.4967,2.83318985 C12.4153108,2.35211117 11.9986258,2 11.5107109,2 L9.72154758,2 C9.16926283,2 8.72154758,2.44771525 8.72154758,3 C8.72154758,3.0590504 8.72677798,3.11798474 8.73717748,3.17611219 L10.3473541,12.1761122 C10.4326538,12.652891 10.847375,13 11.3317242,13 Z" id="路径-23"></path>
                </g>
            </g>
        </g>
    </g>
</svg>